<?xml version="1.0" encoding="utf-8"?>
<?xml-stylesheet type="text/xsl" href="rss1.xsl"?>
<rss version="2.0" xmlns:atom="http://www.w3.org/2005/Atom" xmlns:content="http://purl.org/rss/1.0/modules/content/" xmlns:dc="http://purl.org/dc/elements/1.1/" xmlns:media="http://search.yahoo.com/mrss/">
<channel>
 <title>Getty</title>
 <link>http://www.gettyimg.com/</link>
 <atom:link href="http://www.gettyimg.com/" rel="self" type="application/rss+xml" />

 
                <item>
                <title><![CDATA[【UPSCALED】Gotye - Somebody That I Used To Know (feat. Kimbra) [4K AI Upscale | HEVC 10-bit | PCM 24-bit | DTS-HD MA 5.1]]]></title>
                <link><![CDATA[https://sharemania.us/threads/gotye-somebody-that-i-used-to-know-feat-kimbra-4k-ai-upscale-hevc-10-bit-pcm-24-bit-dts-hd-ma-5-1.238394/]]></link>
                <description><![CDATA[<article>
<blockquote class="messageText SelectQuoteContainer ugc baseHtml">
<b><img src="https://images2.imgbox.com/09/c0/HXzIamL0_o.jpg" class="bbCodeImage LbImage" alt="[​IMG]" data-url="https://images2.imgbox.com/09/c0/HXzIamL0_o.jpg" style=""> <br>
<br>
Genre: <span style="color: #0059b3">Electronic, Pop</span><br>
Style: <span style="color: #0059b3">Indie Pop, Downtempo</span><br>
Year: <span style="color: #0059b3">2011</span><br>
Video Source: <span style="color: #0059b3">DTS Blu-ray Music Demo Disc 7</span></b><br>
<b>Audio Source: <span style="color: #0059b3">DTS Blu-ray Music Demo Disc 7 &amp; Losslessclub, thanks Zephyr</span></b><br>
<br>
"<b>Somebody That I Used to Know</b>" is a song written, produced and performed by Australian musician and singer Gotye, featuring vocals from New Zealand singer Kimbra. The song was released in Australia and New Zealand through Eleven Music on 5 July 2011 as the second single from Gotye's third studio album, <i>Making Mirrors</i> (2011). It was written and recorded by Gotye at his parents' house on the Mornington Peninsula in Victoria, Australia, and is lyrically related to the experiences he has had with romantic relationships.<br>
<br>
Commercially, "Somebody That I Used to Know" was a global success and became both artists' signature song. It reached the top of the charts in Australia, New Zealand, the United Kingdom and the United States, as well as 25 other official charts, and reached the Top 10 in more than 30 countries. It was the most commercially successful recording of 2011 in Flanders (Belgium), the most successful of 2012 in Canada, Israel, the United Kingdom, the United States and Wallonia (Belgium), and the most successful of the 2010s decade by an Australian artist in Australia. It is certified multi-platinum in ten countries, including Diamond in Australia. Globally, "Somebody That I Used to Know" has sold more than 20 million copies, becoming one of the best-selling digital singles of all time. In addition to the Hot 100, it was also placed at the top of <i>Billboard</i>'s Year-End Adult Top 40 and Alternative Airplay charts, and many other charts around the world. On Spotify, the song has been streamed more than 1.4 billion times.<br>
<br>
In Australia, the song won the Triple J Hottest 100 poll at the end of 2011, as well as ARIA Music Awards for Song of the Year and Best Video, while Kimbra was voted Best Female Artist, and Gotye was named Best Male Artist and Producer of the Year. The song came ninth in the Triple J Hottest 100 of the Past 20 Years, 2013. At the 55th Annual Grammy Awards, "Somebody That I Used to Know" won two Grammys for Best Pop Duo/Group Performance and Record of the Year.<br>
<br>
The accompanying music video for "Somebody That I Used to Know" was directed, produced and edited by Australian creative filmmaker Natasha Pincus. The video, which has received over 2 billion views on YouTube as of November 2022, premiered on 5 July 2011, the same day the song was first released. It shows Gotye and Kimbra naked against a white backdrop. While they sing, a pattern of paint gradually covers their skin and the backdrop via stop motion animation.<br>
<br>
<b>Release Info</b><br>
The video track is upscaled from 1080p to 4K with Topaz Video AI and encoded to HEVC 10-bit.<br>
The PCM track is lossless (Losslessclub, 24-bit 44.1 kHz) and synced with Adobe Audition.<br>
The DTS tracks are also lossless, muxed from the Music Demo Disc 7 Blu-ray, left as is.<br>
The timed lyrics are synced and edited. Enable the subtitles to see the lyrics.<br>
<br>
<b>Note:</b> This music video contains two DTS-HD MA 5.1 mixes.<br>
The first one is more bright sounding and the second one has a more natural mix, with better dynamics.<br>
<br>
<div class="ToggleTriggerAnchor bbCodeSpoilerContainer">
<button type="button" class="button bbCodeSpoilerButton ToggleTrigger Tooltip JsOnly" data-target="> .SpoilerTarget"><span>Spoiler: <span class="SpoilerTitle">Media Info</span></span></button>
<div class="SpoilerTarget bbCodeSpoilerText">
<div class="bbCodeBlock bbCodeCode">
<div class="type">Code:</div>
<pre>General
Unique ID                      : 104778330194487316033130748967167805132 (0x4ED3928679EF69D6583591F5272D46CC)
Complete name                  : Gotye - Somebody That I Used To Know (feat. Kimbra).mkv
Format                         : Matroska
Format version                 : Version 4 / Version 2
File size                      : 730 MiB
Duration                       : 4 min 7 s
Overall bit rate               : 24.7 Mb/s
Frame rate                     : 29.970 FPS
Encoded date                   : 2024-02-18 23:44:07 UTC
Writing application            : mkvmerge v82.0 ('I'm The President') 64-bit
Writing library                : libebml v1.4.5 + libmatroska v1.7.1

Video
ID                             : 1
Format                         : HEVC
Format/Info                    : High Efficiency Video Coding
Format profile                 : Main 10@L5@Main
Codec ID                       : V_MPEGH/ISO/HEVC
Duration                       : 4 min 7 s
Bit rate                       : 17.7 Mb/s
Width                          : 3 840 pixels
Height                         : 2 160 pixels
Display aspect ratio           : 16:9
Frame rate mode                : Constant
Frame rate                     : 29.970 (30000/1001) FPS
Color space                    : YUV
Chroma subsampling             : 4:2:0
Bit depth                      : 10 bits
Bits/(Pixel*Frame)             : 0.071
Stream size                    : 522 MiB (71%)
Default                        : Yes
Forced                         : No
Color range                    : Limited
Color primaries                : BT.709
Transfer characteristics       : BT.709
Matrix coefficients            : BT.709

Audio #1
ID                             : 2
Format                         : PCM
Format settings                : Little / Signed
Codec ID                       : A_PCM/INT/LIT
Duration                       : 4 min 7 s
Bit rate mode                  : Constant
Bit rate                       : 2 117 kb/s
Channel(s)                     : 2 channels
Sampling rate                  : 44.1 kHz
Frame rate                     : 25.000 FPS (1764 SPF)
Bit depth                      : 24 bits
Stream size                    : 62.4 MiB (9%)
Title                          : Lossless 24-bit
Language                       : English
Default                        : Yes
Forced                         : No

Audio #2
ID                             : 3
Format                         : DTS XLL
Format/Info                    : Digital Theater Systems
Commercial name                : DTS-HD Master Audio
Codec ID                       : A_DTS
Duration                       : 4 min 6 s
Bit rate mode                  : Variable / Constant
Bit rate                       : 2 400 kb/s / 1 509 kb/s
Channel(s)                     : 6 channels
Channel layout                 : C L R Ls Rs LFE
Sampling rate                  : 48.0 kHz
Frame rate                     : 93.750 FPS (512 SPF)
Bit depth                      : 16 bits
Compression mode               : Lossless / Lossy
Delay relative to video        : 1 s 168 ms
Stream size                    : 70.4 MiB (10%)
Language                       : English
Default                        : No
Forced                         : No

Audio #3
ID                             : 4
Format                         : DTS XLL
Format/Info                    : Digital Theater Systems
Commercial name                : DTS-HD Master Audio
Codec ID                       : A_DTS
Duration                       : 4 min 7 s
Bit rate mode                  : Variable / Constant
Bit rate                       : 2 574 kb/s / 1 509 kb/s
Channel(s)                     : 6 channels
Channel layout                 : C L R Ls Rs LFE
Sampling rate                  : 48.0 kHz
Frame rate                     : 93.750 FPS (512 SPF)
Bit depth                      : 16 bits
Compression mode               : Lossless / Lossy
Stream size                    : 75.9 MiB (10%)
Language                       : English
Default                        : No
Forced                         : No

Text
ID                             : 5
Format                         : UTF-8
Codec ID                       : S_TEXT/UTF8
Codec ID/Info                  : UTF-8 Plain Text
Duration                       : 3 min 42 s
Bit rate                       : 63 b/s
Frame rate                     : 0.198 FPS
Count of elements              : 44
Stream size                    : 1.71 KiB (0%)
Title                          : Lyrics
Language                       : English
Default                        : No
Forced                         : No
</pre>
</div></div>
</div><br>
<b>Note to the peeps @ RuTracker: Give credit if you post the work of someone else!</b><br>
- Hurby4 aka ADHDerby<br>
<br>
<div class="bbCodeBlock bbCodeVfcHH HiddenContent">
<div class="attribution type">Hidden Content:</div>
<blockquote>You must reply before you can see the hidden data contained here.</blockquote>
</div>
<div class="messageTextEndMarker">&nbsp;</div>
</blockquote>
</article>]]></description>
                <author><![CDATA[ADHDerby]]></author>
                </item>

                </channel></rss>